<?xml version="1.0" encoding="UTF-8" standalone="no"?>
<svg
   xmlns:dc="http://purl.org/dc/elements/1.1/"
   xmlns:cc="http://creativecommons.org/ns#"
   xmlns:rdf="http://www.w3.org/1999/02/22-rdf-syntax-ns#"
   xmlns:svg="http://www.w3.org/2000/svg"
   xmlns="http://www.w3.org/2000/svg"
   viewBox="0 0 2800 2800"
   height="2800"
   width="2800"
   xml:space="preserve"
   id="svg2"
   version="1.1"><metadata
     id="metadata8"><rdf:RDF><cc:Work
         rdf:about=""><dc:format>image/svg+xml</dc:format><dc:type
           rdf:resource="http://purl.org/dc/dcmitype/StillImage" /></cc:Work></rdf:RDF></metadata><defs
     id="defs6" /><g
     transform="matrix(1.3333333,0,0,-1.3333333,0,2800)"
     id="g10"><g
       transform="scale(0.1)"
       id="g12"><g
         transform="scale(1.02257)"
         id="g14"><path
           id="path16"
           style="fill:#100f0d;fill-opacity:1;fill-rule:nonzero;stroke:none"
           d="m 12217.2,4401.56 c -854.8,0 -1629.2,183.06 -2301.89,544.11 -684.69,367.51 -1228.94,896.96 -1617.58,1573.68 -384.75,669.88 -579.84,1409.69 -579.84,2198.78 0,1259.17 434.21,2323.37 1290.57,3163.17 853.16,836.7 1935.54,1260.9 3217.14,1260.9 510.1,0 1066.3,-105.5 1652.9,-313.6 l 2.1,-0.8 c 268.2,-96.2 373.7,-110.2 393.5,-112.1 7.7,2.3 36.6,17.5 79.2,61 l 179.3,182.6 h 1072.6 V 9741.04 h -1233.6 l -151.2,388.36 c -169.6,435.7 -422.7,770.9 -773.9,1024.6 -341.8,246.8 -707.8,366.8 -1119,366.8 -516.6,0 -889.3,-205.4 -1173,-646.5 -330.9,-514.5 -498.7,-1282.2 -498.7,-2281.64 0,-899.6 159.8,-1575.05 474.9,-2007.69 279.1,-383.54 665.6,-562.11 1216.5,-562.11 339.4,0 443.4,69.24 458.4,80.87 2.9,8.42 7.9,31 7.9,70.03 V 7239.5 c 0,94.08 -15.3,166.54 -42.1,198.72 -27.7,33.34 -101.5,64.54 -197.3,83.31 l -492,96.72 V 8936.4 H 16300 V 7655.32 L 15852.4,7532 c -142.9,-39.31 -187.1,-80.98 -192.6,-86.55 -5.7,-10.76 -54.6,-110.51 -54.6,-404.08 V 5133.83 l -348.9,-164.98 c -796.1,-376.5 -1818.5,-567.29 -3039.1,-567.29" /></g><g
         transform="scale(1.01222)"
         id="g18"><path
           id="path20"
           style="fill:#100f0d;fill-opacity:1;fill-rule:nonzero;stroke:none"
           d="m 8019.88,9551.71 c 32.43,-16.69 171.18,-74.38 539.26,-74.38 648.76,0 1128.59,199.46 1466.86,609.77 362.9,440 546.8,1100.9 546.8,1964.5 0,849.1 -197.1,1488.6 -602.79,1955.1 -383.4,441 -921.82,655.4 -1646.02,655.4 H 7999 V 9713.44 c 0,-90.69 12.95,-141.97 20.88,-161.73 z M 4279.78,7839.43 v 1292.32 l 449.98,125.86 c 242.67,67.77 361.96,123.98 413.89,153.43 13.92,56.5 35.14,182.37 35.14,424.81 v 4612.65 c 0,157.2 -16.88,241.9 -27.43,279.5 -45.49,26.8 -162.06,84.1 -415.63,152.2 l -455.95,122.6 V 16300 h 4305.53 c 1487.59,0 2692.19,-394.4 3580.69,-1172.3 912.2,-798.9 1374.9,-1858.1 1374.9,-3148.4 0,-1244.3 -417.2,-2259.54 -1240,-3017.58 -808.4,-744.7 -1896.5,-1122.29 -3234.14,-1122.29 H 4279.78" /></g><path
         id="path22"
         style="fill:#ffffff;fill-opacity:1;fill-rule:nonzero;stroke:none"
         d="m 10359.9,9977.6 c -403.14,-468.3 -958.49,-696.1 -1696.21,-696.1 -47.49,0 -92.12,0.9 -134,2.5 -8.1,-102.1 -12.72,-205.9 -13.96,-311.4 -0.25,-19.2 -0.38,-38.4 -0.38,-57.7 0,-120.4 4.99,-239.2 15.21,-356.4 8.85,-105.2 21.94,-209 39.27,-311.6 h 607.7 c 392.67,0 762.28,33.6 1107.87,100.9 -6,102.3 -9.8,207.1 -11.4,314.7 -0.6,40.9 -1,82.2 -1,124 0,245.6 9.2,479.4 27.9,701.3 14.1,170.3 33.8,333.5 59,489.8 z m 2717,2384.3 c -7.1,141.1 -20.8,278.6 -41.1,412.4 -16.7,110.1 -37.9,217.8 -63.6,322.9 -166.9,686.9 -523,1269 -1068.2,1746.3 -785.9,688.2 -1857.2,1032.4 -3213.75,1032.4 H 4955.4 V 15664 c 378.95,-102 625.53,-218.1 739.34,-348.3 113.68,-130.5 170.65,-360.8 170.65,-690.8 V 9956 c 0,-427.9 -56.97,-706 -170.65,-834.3 -113.81,-128.3 -360.39,-245.3 -739.34,-351.3 v -211.9 h 3262.52 c -9.47,117.6 -14.21,236.4 -14.21,356.4 0,29.2 0.25,58.2 0.75,87.1 -195.34,31.3 -347.55,85.8 -456.37,163.3 -183.12,130.6 -274.62,352.8 -274.62,666.8 v 5632.4 h 952.25 c 915.61,0 1627.68,-292.6 2136.48,-877.7 370.3,-425.8 605.7,-963.1 706.6,-1612.2 15.7,-101.2 28.1,-205.3 37.4,-312 12.8,-149.2 19.2,-303.8 19.2,-463.7 0,-79.7 -1.4,-158.1 -4.3,-235 -6,-167.5 -18.7,-328.6 -38.1,-482.9 -84,-670.4 -293.2,-1215.6 -627.5,-1635 -47.2,-322.1 -70.8,-675.7 -70.8,-1059.5 0,-16.2 0,-32.4 0.1,-48.6 561.9,158.6 1043.2,422.5 1444,791.7 685,631 1036.2,1468.9 1053.5,2513.9 0.5,27.2 0.7,54.7 0.7,82.1 0,79.9 -2,158.7 -6.1,236.3" /><path
         id="path24"
         style="fill:#ffffff;fill-opacity:1;fill-rule:nonzero;stroke:none"
         d="m 10300.9,9487.8 c -428.28,-345.4 -974.03,-517.9 -1637.21,-517.9 -51.11,0 -100.35,0.8 -147.96,2.7 -0.25,-19.2 -0.38,-38.4 -0.38,-57.7 0,-120.4 4.99,-239.2 15.21,-356.4 h 646.97 c 392.05,0 757.54,34.7 1096.47,104 -0.6,40.9 -1,82.2 -1,124 0,245.6 9.2,479.4 27.9,701.3 z m 2776,2874.1 c -7.1,141.1 -20.8,278.6 -41.1,412.4 -16.7,110.1 -37.9,217.8 -63.6,322.9 -166.9,686.9 -523,1269 -1068.2,1746.3 -785.9,688.2 -1857.2,1032.4 -3213.75,1032.4 H 4955.4 V 15664 c 378.95,-102 625.53,-218.1 739.34,-348.3 113.68,-130.5 170.65,-360.8 170.65,-690.8 V 9956 c 0,-427.9 -56.97,-706 -170.65,-834.3 -113.81,-128.3 -360.39,-245.3 -739.34,-351.3 v -211.9 h 3262.52 c -9.47,117.6 -14.21,236.4 -14.21,356.4 0,29.2 0.25,58.2 0.75,87.1 -195.34,31.3 -347.55,85.8 -456.37,163.3 -183.12,130.6 -274.62,352.8 -274.62,666.8 v 5632.4 h 952.25 c 915.61,0 1627.68,-292.6 2136.48,-877.7 370.3,-425.8 605.7,-963.1 706.6,-1612.2 15.7,-101.2 28.1,-205.3 37.4,-312 12.8,-149.2 19.2,-303.8 19.2,-463.7 0,-79.7 -1.4,-158.1 -4.3,-235 -6,-167.5 -18.7,-328.6 -38.1,-482.9 -84,-670.4 -293.2,-1215.6 -627.5,-1635 -47.2,-322.1 -70.8,-675.7 -70.8,-1059.5 0,-16.2 0,-32.4 0.1,-48.6 561.9,158.6 1043.2,422.5 1444,791.7 685,631 1036.2,1468.9 1053.5,2513.9 0.5,27.2 0.7,54.7 0.7,82.1 0,79.9 -2,158.7 -6.1,236.3" /><path
         id="path26"
         style="fill:#ffffff;fill-opacity:1;fill-rule:nonzero;stroke:none"
         d="m 13076.9,12361.9 c 4.1,-77.6 6.1,-156.4 6.1,-236.3 0,-27.4 -0.2,-54.9 -0.7,-82.1 -153.3,32.8 -311.8,49 -476.6,49 -554.8,0 -989.8,-200.5 -1322.7,-611.5 19.4,154.3 32.1,315.4 38.1,482.9 2.9,76.9 4.3,155.3 4.3,235 0,159.9 -6.4,314.5 -19.2,463.7 -9.3,106.7 -21.7,210.8 -37.4,312 385.7,101.6 797,152.6 1232.7,152.6 152.5,0 309.4,-10 470.7,-30 25.7,-105.1 46.9,-212.8 63.6,-322.9 20.3,-133.8 34,-271.3 41.1,-412.4" /><path
         id="path28"
         style="fill:#ffffff;fill-opacity:1;fill-rule:nonzero;stroke:none"
         d="m 15645.7,12940.2 v -2667.7 h -736.6 l -77.4,198.6 c -195.8,503.1 -490,891.6 -899.3,1187.3 -174.1,125.6 -353.7,223.6 -540.7,294.4 2,57.1 3,114.7 3,172.8 0,52.6 -0.9,104.8 -2.5,156.5 -4.6,147.3 -15.8,291 -33.5,431.3 -14.3,112.2 -32.6,222.3 -55.1,330.1 252.9,-50.4 514.7,-123.6 783.9,-219.1 336.1,-120.5 467.2,-133.5 508,-133.5 101.7,0 201.3,51 304.3,155.9 l 91.6,93.4 h 654.3" /><path
         id="path30"
         style="fill:#ffffff;fill-opacity:1;fill-rule:nonzero;stroke:none"
         d="M 16044.6,8514.9 V 8303 c -267.2,-73.7 -452.5,-191.1 -555.7,-352.4 -103.2,-161.3 -154.8,-411.4 -154.8,-750.4 V 5644.4 c -733.1,-346.7 -1680.4,-520.2 -2841.2,-520.2 -774,0 -1460.2,160.8 -2059,482.2 -598.68,321.5 -1068.39,778.3 -1408.45,1370.5 -229.12,398.9 -380.95,822.1 -455.62,1270 -17.33,102.6 -30.42,206.4 -39.27,311.6 -10.22,117.2 -15.21,236 -15.21,356.4 0,19.3 0.13,38.5 0.38,57.7 1.24,105.5 5.86,209.3 13.96,311.4 75.04,956 447.77,1762.8 1118.55,2420.5 396.76,389.2 847.66,676.1 1352.66,860.7 8.6,-118.5 12.8,-240.7 12.8,-366.3 0,-209.2 -10.2,-407.9 -30.6,-596.1 -34.8,-46.7 -68.5,-95.3 -101,-145.9 -252.7,-392.9 -426.8,-886.1 -522.2,-1479.3 -25.2,-156.3 -44.9,-319.5 -59,-489.8 -18.7,-221.9 -27.9,-455.7 -27.9,-701.3 0,-41.8 0.4,-83.1 1,-124 1.6,-107.6 5.4,-212.4 11.4,-314.7 49.3,-845.9 246.8,-1506.3 592.6,-1981.1 403.4,-554.1 986,-831.1 1747.9,-831.1 733.4,0 1100.1,259 1100.1,777.5 v 1089.7 c 0,502.1 -249.3,802.2 -747.9,900.2 v 211.9 h 3066.5" /><path
         id="path32"
         style="fill:#ffffff;fill-opacity:1;fill-rule:nonzero;stroke:none"
         d="m 15122.2,12628.6 c -163.2,-166.5 -339,-249.3 -526.7,-249.3 -126.5,0 -330.5,50.3 -612.2,151.4 -214.8,76.2 -423,137.1 -624.6,182.7 17.7,-140.3 28.9,-284 33.5,-431.3 253,-82.1 494,-205.9 722.7,-371.2 455,-328.7 790.9,-770.9 1007.3,-1326.7 h 211.9 v 2044.4 z m -2086.4,145.7 c -184,27.5 -362.1,41.3 -534.3,41.3 -425.4,0 -823.8,-51 -1195.3,-153 12.8,-149.2 19.2,-303.8 19.2,-463.7 0,-79.7 -1.4,-158.1 -4.3,-235 349.9,293.6 778.1,440.3 1284.6,440.3 161.2,0 318.3,-14.1 471.2,-42.3 -7.1,141.1 -20.8,278.6 -41.1,412.4 z m -57.7,-4259.4 V 8303 c 498.6,-98 747.9,-398.1 747.9,-900.2 V 6313.1 c 0,-518.5 -366.7,-777.5 -1100.1,-777.5 -761.9,0 -1344.5,277 -1747.9,831.1 -345.8,474.8 -543.3,1135.2 -592.6,1981.1 -6,102.3 -9.8,207.1 -11.4,314.7 -0.6,40.9 -1,82.2 -1,124 0,245.6 9.2,479.4 27.9,701.3 14.1,170.3 33.8,333.5 59,489.8 95.4,593.2 269.5,1086.4 522.2,1479.3 32.5,50.6 66.2,99.2 101,145.9 20.4,188.2 30.6,386.9 30.6,596.1 0,125.6 -4.2,247.8 -12.8,366.3 -505,-184.6 -955.9,-471.5 -1352.66,-860.7 C 8977.46,11046.8 8604.73,10240 8529.69,9284 c -8.1,-102.1 -12.72,-205.9 -13.96,-311.4 -0.25,-19.2 -0.38,-38.4 -0.38,-57.7 0,-120.4 4.99,-239.2 15.21,-356.4 8.85,-105.2 21.94,-209 39.27,-311.6 74.67,-447.9 226.5,-871.1 455.62,-1270 340.06,-592.2 809.77,-1049 1408.45,-1370.5 598.8,-321.4 1285,-482.2 2059,-482.2 1160.8,0 2108.1,173.5 2841.2,520.2 v 1555.8 c 0,339 51.6,589.1 154.8,750.4 103.2,161.3 288.5,278.7 555.7,352.4 v 211.9 h -3066.5" /></g></g></svg>