<svg width="800" height="600" xmlns="http://www.w3.org/2000/svg">

 <g>
  <title>Layer 1</title>
  <ellipse stroke="#000" ry="400.88698" rx="401.10858" id="svg_16" cy="302.77776" cx="396.66679" fill="#be12a4ff"/>
  <g stroke="null">
   <metadata stroke="null" id="svg_15">image/svg+xml</metadata>

   <g stroke="null" id="svg_2" transform="matrix(0.643386 0 0 -0.499886 -239.239 741.913)">
    <g stroke="null" id="svg_3" transform="translate(0 824.996) scale(0.1 0.1)">
     <g stroke="null" id="svg_12" transform="translate(-7499.98 0) scale(1.02257 1.02257)">
      <path stroke="null" fill-rule="nonzero" fill="#100f0d" d="m19009.31121,-5280.09833c-854.8,0 -1629.2,183.06 -2301.89,544.11c-684.69,367.51 -1228.94,896.96 -1617.58,1573.68c-384.75,669.88 -579.84,1409.69 -579.84,2198.78c0,1259.17 434.21,2323.37 1290.57,3163.17c853.16,836.7 1935.54,1260.9 3217.14,1260.9c510.1,0 1066.3,-105.5 1652.9,-313.6l2.1,-0.8c268.2,-96.2 373.7,-110.2 393.5,-112.1c7.7,2.3 36.6,17.5 79.2,61l179.3,182.6l1072.6,0l0,-3218.26l-1233.6,0l-151.2,388.36c-169.6,435.7 -422.7,770.9 -773.9,1024.6c-341.8,246.8 -707.8,366.8 -1119,366.8c-516.6,0 -889.3,-205.4 -1173,-646.5c-330.9,-514.5 -498.7,-1282.2 -498.7,-2281.64c0,-899.6 159.8,-1575.05 474.9,-2007.69c279.1,-383.54 665.6,-562.11 1216.5,-562.11c339.4,0 443.4,69.24 458.4,80.87c2.9,8.42 7.9,31 7.9,70.03l0,1065.74c0,94.08 -15.3,166.54 -42.1,198.72c-27.7,33.34 -101.5,64.54 -197.3,83.31l-492,96.72l0,1318.15l4217.9,0l0,-1281.08l-447.6,-123.32c-142.9,-39.31 -187.1,-80.98 -192.6,-86.55c-5.7,-10.76 -54.6,-110.51 -54.6,-404.08l0,-1907.54l-348.9,-164.98c-796.1,-376.5 -1818.5,-567.29 -3039.1,-567.29" id="svg_13"/>
     </g>
     <g stroke="null" id="svg_10" transform="translate(-7499.98 0) scale(1.01222 1.01222)">
      <path stroke="null" fill-rule="nonzero" fill="#100f0d" d="m14881.44098,-228.94336c32.43,-16.69 171.18,-74.38 539.26,-74.38c648.76,0 1128.59,199.46 1466.86,609.77c362.9,440 546.8,1100.9 546.8,1964.5c0,849.1 -197.1,1488.6 -602.79,1955.1c-383.4,441 -921.82,655.4 -1646.02,655.4l-324.99,0l0,-4948.66c0,-90.69 12.95,-141.97 20.88,-161.73zm-3740.1,-1712.28l0,1292.32l449.98,125.86c242.67,67.77 361.96,123.98 413.89,153.43c13.92,56.5 35.14,182.37 35.14,424.81l0,4612.65c0,157.2 -16.88,241.9 -27.43,279.5c-45.49,26.8 -162.06,84.1 -415.63,152.2l-455.95,122.6l0,1297.2l4305.53,0c1487.59,0 2692.19,-394.4 3580.69,-1172.3c912.2,-798.9 1374.9,-1858.1 1374.9,-3148.4c0,-1244.3 -417.2,-2259.54 -1240,-3017.58c-808.4,-744.7 -1896.5,-1122.29 -3234.14,-1122.29l-4786.98,0" id="svg_11"/>
     </g>
     <path stroke="null" fill-rule="nonzero" fill="#ffffff" d="m9805.32564,77.42661c-403.14,-468.3 -958.49,-696.1 -1696.21,-696.1c-47.49,0 -92.12,0.9 -134,2.5c-8.1,-102.1 -12.72,-205.9 -13.96,-311.4c-0.25,-19.2 -0.38,-38.4 -0.38,-57.7c0,-120.4 4.99,-239.2 15.21,-356.4c8.85,-105.2 21.94,-209 39.27,-311.6l607.7,0c392.67,0 762.28,33.6 1107.87,100.9c-6,102.3 -9.8,207.1 -11.4,314.7c-0.6,40.9 -1,82.2 -1,124c0,245.6 9.2,479.4 27.9,701.3c14.1,170.3 33.8,333.5 59,489.8zm2717,2384.3c-7.1,141.1 -20.8,278.6 -41.1,412.4c-16.7,110.1 -37.9,217.8 -63.6,322.9c-166.9,686.9 -523,1269 -1068.2,1746.3c-785.9,688.2 -1857.2,1032.4 -3213.75,1032.4l-3734.85,0l0,-211.9c378.95,-102 625.53,-218.1 739.34,-348.3c113.68,-130.5 170.65,-360.8 170.65,-690.8l0,-4668.9c0,-427.9 -56.97,-706 -170.65,-834.3c-113.81,-128.3 -360.39,-245.3 -739.34,-351.3l0,-211.9l3262.52,0c-9.47,117.6 -14.21,236.4 -14.21,356.4c0,29.2 0.25,58.2 0.75,87.1c-195.34,31.3 -347.55,85.8 -456.37,163.3c-183.12,130.6 -274.62,352.8 -274.62,666.8l0,5632.4l952.25,0c915.61,0 1627.68,-292.6 2136.48,-877.7c370.3,-425.8 605.7,-963.1 706.6,-1612.2c15.7,-101.2 28.1,-205.3 37.4,-312c12.8,-149.2 19.2,-303.8 19.2,-463.7c0,-79.7 -1.4,-158.1 -4.3,-235c-6,-167.5 -18.7,-328.6 -38.1,-482.9c-84,-670.4 -293.2,-1215.6 -627.5,-1635c-47.2,-322.1 -70.8,-675.7 -70.8,-1059.5c0,-16.2 0,-32.4 0.1,-48.6c561.9,158.6 1043.2,422.5 1444,791.7c685,631 1036.2,1468.9 1053.5,2513.9c0.5,27.2 0.7,54.7 0.7,82.1c0,79.9 -2,158.7 -6.1,236.3" id="svg_9"/>
     <path stroke="null" fill-rule="nonzero" fill="#35eb1dff" d="m9746.32564,-412.37339c-428.28,-345.4 -974.03,-517.9 -1637.21,-517.9c-51.11,0 -100.35,0.8 -147.96,2.7c-0.25,-19.2 -0.38,-38.4 -0.38,-57.7c0,-120.4 4.99,-239.2 15.21,-356.4l646.97,0c392.05,0 757.54,34.7 1096.47,104c-0.6,40.9 -1,82.2 -1,124c0,245.6 9.2,479.4 27.9,701.3zm2776,2874.1c-7.1,141.1 -20.8,278.6 -41.1,412.4c-16.7,110.1 -37.9,217.8 -63.6,322.9c-166.9,686.9 -523,1269 -1068.2,1746.3c-785.9,688.2 -1857.2,1032.4 -3213.75,1032.4l-3734.85,0l0,-211.9c378.95,-102 625.53,-218.1 739.34,-348.3c113.68,-130.5 170.65,-360.8 170.65,-690.8l0,-4668.9c0,-427.9 -56.97,-706 -170.65,-834.3c-113.81,-128.3 -360.39,-245.3 -739.34,-351.3l0,-211.9l3262.52,0c-9.47,117.6 -14.21,236.4 -14.21,356.4c0,29.2 0.25,58.2 0.75,87.1c-195.34,31.3 -347.55,85.8 -456.37,163.3c-183.12,130.6 -274.62,352.8 -274.62,666.8l0,5632.4l952.25,0c915.61,0 1627.68,-292.6 2136.48,-877.7c370.3,-425.8 605.7,-963.1 706.6,-1612.2c15.7,-101.2 28.1,-205.3 37.4,-312c12.8,-149.2 19.2,-303.8 19.2,-463.7c0,-79.7 -1.4,-158.1 -4.3,-235c-6,-167.5 -18.7,-328.6 -38.1,-482.9c-84,-670.4 -293.2,-1215.6 -627.5,-1635c-47.2,-322.1 -70.8,-675.7 -70.8,-1059.5c0,-16.2 0,-32.4 0.1,-48.6c561.9,158.6 1043.2,422.5 1444,791.7c685,631 1036.2,1468.9 1053.5,2513.9c0.5,27.2 0.7,54.7 0.7,82.1c0,79.9 -2,158.7 -6.1,236.3" id="svg_8"/>
     <path stroke="null" fill-rule="nonzero" fill="#ffffff" d="m12522.32564,2461.72661c4.1,-77.6 6.1,-156.4 6.1,-236.3c0,-27.4 -0.2,-54.9 -0.7,-82.1c-153.3,32.8 -311.8,49 -476.6,49c-554.8,0 -989.8,-200.5 -1322.7,-611.5c19.4,154.3 32.1,315.4 38.1,482.9c2.9,76.9 4.3,155.3 4.3,235c0,159.9 -6.4,314.5 -19.2,463.7c-9.3,106.7 -21.7,210.8 -37.4,312c385.7,101.6 797,152.6 1232.7,152.6c152.5,0 309.4,-10 470.7,-30c25.7,-105.1 46.9,-212.8 63.6,-322.9c20.3,-133.8 34,-271.3 41.1,-412.4" id="svg_7"/>
     <path stroke="null" fill-rule="nonzero" fill="#aa5555ff" d="m15091.12564,3040.02661l0,-2667.7l-736.6,0l-77.4,198.6c-195.8,503.1 -490,891.6 -899.3,1187.3c-174.1,125.6 -353.7,223.6 -540.7,294.4c2,57.1 3,114.7 3,172.8c0,52.6 -0.9,104.8 -2.5,156.5c-4.6,147.3 -15.8,291 -33.5,431.3c-14.3,112.2 -32.6,222.3 -55.1,330.1c252.9,-50.4 514.7,-123.6 783.9,-219.1c336.1,-120.5 467.2,-133.5 508,-133.5c101.7,0 201.3,51 304.3,155.9l91.6,93.4l654.3,0" id="svg_6"/>
     <path stroke="null" fill-rule="nonzero" fill="#3713c6ff" d="m15490.02564,-1385.27339l0,-211.9c-267.2,-73.7 -452.5,-191.1 -555.7,-352.4c-103.2,-161.3 -154.8,-411.4 -154.8,-750.4l0,-1555.8c-733.1,-346.7 -1680.4,-520.2 -2841.2,-520.2c-774,0 -1460.2,160.8 -2059,482.2c-598.68,321.5 -1068.39,778.3 -1408.45,1370.5c-229.12,398.9 -380.95,822.1 -455.62,1270c-17.33,102.6 -30.42,206.4 -39.27,311.6c-10.22,117.2 -15.21,236 -15.21,356.4c0,19.3 0.13,38.5 0.38,57.7c1.24,105.5 5.86,209.3 13.96,311.4c75.04,956 447.77,1762.8 1118.55,2420.5c396.76,389.2 847.66,676.1 1352.66,860.7c8.6,-118.5 12.8,-240.7 12.8,-366.3c0,-209.2 -10.2,-407.9 -30.6,-596.1c-34.8,-46.7 -68.5,-95.3 -101,-145.9c-252.7,-392.9 -426.8,-886.1 -522.2,-1479.3c-25.2,-156.3 -44.9,-319.5 -59,-489.8c-18.7,-221.9 -27.9,-455.7 -27.9,-701.3c0,-41.8 0.4,-83.1 1,-124c1.6,-107.6 5.4,-212.4 11.4,-314.7c49.3,-845.9 246.8,-1506.3 592.6,-1981.1c403.4,-554.1 986,-831.1 1747.9,-831.1c733.4,0 1100.1,259 1100.1,777.5l0,1089.7c0,502.1 -249.3,802.2 -747.9,900.2l0,211.9l3066.5,0" id="svg_5"/>
     <path stroke="null" fill-rule="nonzero" fill="#00ccffff" d="m14567.62564,2728.42661c-163.2,-166.5 -339,-249.3 -526.7,-249.3c-126.5,0 -330.5,50.3 -612.2,151.4c-214.8,76.2 -423,137.1 -624.6,182.7c17.7,-140.3 28.9,-284 33.5,-431.3c253,-82.1 494,-205.9 722.7,-371.2c455,-328.7 790.9,-770.9 1007.3,-1326.7l211.9,0l0,2044.4l-211.9,0zm-2086.4,145.7c-184,27.5 -362.1,41.3 -534.3,41.3c-425.4,0 -823.8,-51 -1195.3,-153c12.8,-149.2 19.2,-303.8 19.2,-463.7c0,-79.7 -1.4,-158.1 -4.3,-235c349.9,293.6 778.1,440.3 1284.6,440.3c161.2,0 318.3,-14.1 471.2,-42.3c-7.1,141.1 -20.8,278.6 -41.1,412.4zm-57.7,-4259.4l0,-211.9c498.6,-98 747.9,-398.1 747.9,-900.2l0,-1089.7c0,-518.5 -366.7,-777.5 -1100.1,-777.5c-761.9,0 -1344.5,277 -1747.9,831.1c-345.8,474.8 -543.3,1135.2 -592.6,1981.1c-6,102.3 -9.8,207.1 -11.4,314.7c-0.6,40.9 -1,82.2 -1,124c0,245.6 9.2,479.4 27.9,701.3c14.1,170.3 33.8,333.5 59,489.8c95.4,593.2 269.5,1086.4 522.2,1479.3c32.5,50.6 66.2,99.2 101,145.9c20.4,188.2 30.6,386.9 30.6,596.1c0,125.6 -4.2,247.8 -12.8,366.3c-505,-184.6 -955.9,-471.5 -1352.66,-860.7c-670.78,-657.7 -1043.51,-1464.5 -1118.55,-2420.5c-8.1,-102.1 -12.72,-205.9 -13.96,-311.4c-0.25,-19.2 -0.38,-38.4 -0.38,-57.7c0,-120.4 4.99,-239.2 15.21,-356.4c8.85,-105.2 21.94,-209 39.27,-311.6c74.67,-447.9 226.5,-871.1 455.62,-1270c340.06,-592.2 809.77,-1049 1408.45,-1370.5c598.8,-321.4 1285,-482.2 2059,-482.2c1160.8,0 2108.1,173.5 2841.2,520.2l0,1555.8c0,339 51.6,589.1 154.8,750.4c103.2,161.3 288.5,278.7 555.7,352.4l0,211.9l-3066.5,0" id="svg_4"/>
    </g>
   </g>
  </g>
 </g>
</svg>